<svg width="92" height="92" viewBox="0 0 92 92" fill="none" xmlns="http://www.w3.org/2000/svg">
<path d="M47.4375 11.0155L88.3832 0.0962178C88.6276 0.0315303 88.8763 0.00134277 89.1236 0.00134277C89.7518 0.00134277 90.3684 0.205468 90.8773 0.59503C91.5846 1.13984 92 1.98222 92 2.87491V62.524L47.4375 74.3201V11.0155ZM56.8819 57.8938C57.063 58.5263 57.6394 58.9374 58.2633 58.9374C58.3956 58.9374 58.5278 58.9187 58.6586 58.8828L79.4549 52.9416C80.2182 52.7231 80.661 51.9282 80.4439 51.1648C80.2254 50.4001 79.4248 49.9674 78.6672 50.1758L57.8709 56.117C57.1076 56.3355 56.6648 57.1305 56.8819 57.8938ZM56.8819 47.8313C57.063 48.4638 57.6394 48.8749 58.2633 48.8749C58.3956 48.8749 58.5278 48.8562 58.6586 48.8203L79.4549 42.8777C80.2182 42.6592 80.661 41.8628 80.4439 41.1009C80.2254 40.3362 79.4248 39.9035 78.6672 40.1119L57.8709 46.0545C57.1076 46.273 56.6648 47.0694 56.8819 47.8313ZM56.8819 37.7688C57.063 38.4013 57.6394 38.8124 58.2633 38.8124C58.3956 38.8124 58.5278 38.7937 58.6586 38.7578L79.4549 32.8152C80.2182 32.5967 80.661 31.8003 80.4439 31.0384C80.2254 30.2737 79.4248 29.8395 78.6672 30.0494L57.8709 35.992C57.1076 36.2105 56.6648 37.0069 56.8819 37.7688ZM56.8819 27.7063C57.063 28.3388 57.6394 28.7499 58.2633 28.7499C58.3956 28.7499 58.5278 28.7312 58.6586 28.6953L79.4549 22.7527C80.2182 22.5342 80.661 21.7378 80.4439 20.9759C80.2254 20.2112 79.4248 19.7785 78.6672 19.9869L57.8709 25.9295C57.1076 26.148 56.6648 26.9444 56.8819 27.7063Z" fill="white"/>
<path d="M1.12268 0.595152C1.63156 0.20559 2.24969 0.00146484 2.87787 0.00146484C3.12512 0.00146484 3.37381 0.0330898 3.61675 0.0963398L44.5625 11.0156V74.3202L0 62.5241V2.87503C0 1.98234 0.415436 1.13996 1.12268 0.595152ZM35.328 46L14.5317 40.0574C13.7727 39.849 12.9734 40.2802 12.7549 41.0464C12.5379 41.8083 12.9792 42.6047 13.7439 42.8232L34.5402 48.7658C34.6725 48.8017 34.8048 48.8204 34.9356 48.8204C35.5609 48.8204 36.1359 48.4093 36.317 47.7768C36.5341 47.0149 36.0913 46.2185 35.328 46ZM13.3084 52.9417L34.1047 58.8829C34.2355 58.9188 34.3678 58.9375 34.5 58.9375C35.1253 58.9375 35.7003 58.5264 35.8814 57.8939C36.0985 57.1306 35.6572 56.3357 34.8924 56.1171L14.0961 50.176C13.3371 49.9675 12.5379 50.3988 12.3194 51.165C12.1023 51.9283 12.5451 52.7232 13.3084 52.9417ZM13.3084 32.8153L34.1047 38.7579C34.2355 38.7938 34.3678 38.8125 34.5 38.8125C35.1253 38.8125 35.7003 38.4014 35.8814 37.7689C36.0985 37.007 35.6572 36.2107 34.8924 35.9922L14.0961 30.0495C13.3371 29.8397 12.5379 30.2723 12.3194 31.0385C12.1023 31.8004 12.5451 32.5968 13.3084 32.8153ZM13.3084 22.7528L34.1047 28.6954C34.2355 28.7313 34.3678 28.75 34.5 28.75C35.1253 28.75 35.7003 28.3389 35.8814 27.7064C36.0985 26.9445 35.6572 26.1482 34.8924 25.9297L14.0961 19.987C13.3371 19.7786 12.5379 20.2098 12.3194 20.976C12.1023 21.7379 12.5451 22.5343 13.3084 22.7528Z" fill="white"/>
<path d="M47.4375 77.2944L92 65.4983V68.2741L47.4375 80.0702V77.2944Z" fill="white"/>
<path d="M44.5625 80.0702L0 68.2741V65.4983L44.5625 77.2944V80.0702Z" fill="white"/>
<path d="M41.6875 83.4239C41.6875 85.8059 43.6181 87.7364 46 87.7364C48.3819 87.7364 50.3125 85.8059 50.3125 83.4239C50.3125 83.0415 50.2464 82.6764 50.1544 82.3242L92 71.2483V74.7486C92 76.051 91.1246 77.1909 89.8668 77.5273L52.6743 87.4446C51.6221 90.1097 49.0374 92 46 92C42.9626 92 40.3779 90.1097 39.3257 87.4446L2.13326 77.5273C0.875443 77.1909 0 76.051 0 74.7486V71.2483L41.8456 82.3257C41.7536 82.6779 41.6875 83.043 41.6875 83.4239Z" fill="white"/>
</svg>
