<svg width="596" height="443" viewBox="0 0 596 443" fill="none" xmlns="http://www.w3.org/2000/svg">
<path d="M1.57363 38.8774C0.749535 18.5176 18.3916 2.28352 38.6127 4.7942L559.006 69.4067C578.668 71.848 591.761 90.9433 586.953 110.164L529.957 337.994C526.766 350.748 516.31 360.391 503.34 362.541L54.7895 436.891C35.2144 440.135 17.2227 425.495 16.4202 405.669L1.57363 38.8774Z" fill="url(#paint0_linear_433_81)"/>
<path d="M221 84C221 100.016 208.016 113 192 113C175.984 113 163 100.016 163 84C163 67.9837 175.984 55 192 55C208.016 55 221 67.9837 221 84Z" fill="url(#paint1_linear_433_81)"/>
<circle cx="73" cy="364" r="25" fill="#FFC745"/>
<circle cx="346" cy="48" r="18" fill="#FFC745"/>
<circle cx="541" cy="253" r="31" fill="#7278FD"/>
<circle cx="221" cy="358" r="24" fill="url(#paint2_linear_433_81)"/>
<circle cx="415" cy="252" r="13" fill="#C4C4C4"/>
<defs>
<linearGradient id="paint0_linear_433_81" x1="484.5" y1="310" x2="119" y2="84.5" gradientUnits="userSpaceOnUse">
<stop stop-color="#175004"/>
<stop offset="1" stop-color="#269507"/>
</linearGradient>
<linearGradient id="paint1_linear_433_81" x1="163" y1="84" x2="221" y2="84" gradientUnits="userSpaceOnUse">
<stop stop-color="#76B852"/>
<stop offset="1" stop-color="#8DC26F"/>
</linearGradient>
<linearGradient id="paint2_linear_433_81" x1="197" y1="358" x2="245" y2="358" gradientUnits="userSpaceOnUse">
<stop stop-color="#F7F8F8"/>
<stop offset="1" stop-color="#ACBB78"/>
</linearGradient>
</defs>
</svg>
