<svg width="130" height="130" viewBox="0 0 130 130" fill="none" xmlns="http://www.w3.org/2000/svg">
<g clip-path="url(#clip0_422_36)">
<path d="M128.435 45.8092L70.9071 19.3283C69.0412 18.4688 67.0536 18.0352 65 18.0352C62.9464 18.0352 60.9593 18.4688 59.0929 19.3283L1.56482 45.8092C0.613945 46.2487 0 47.2067 0 48.2536C0 49.3004 0.613945 50.2584 1.56482 50.6979L59.0929 77.1788C60.9588 78.0383 62.9464 78.474 65 78.474C67.0536 78.474 69.0412 78.0383 70.9076 77.1788L116.309 56.2808V77.3248C114.507 77.5279 113.102 79.0615 113.102 80.9145C113.102 82.5291 114.171 83.9269 115.694 84.3722L112.623 104.632H126.76L123.69 84.3722C125.213 83.9269 126.281 82.5291 126.281 80.9145C126.281 79.0615 124.876 77.5279 123.074 77.3248V53.1661L128.436 50.6979C129.386 50.2584 130.001 49.3004 130.001 48.2536C130.001 47.2067 129.386 46.2487 128.435 45.8092Z" fill="white"/>
<path d="M64.9999 88.0625C62.1445 88.0625 59.3777 87.4554 56.7769 86.2587L28.6388 73.3052V99.1117C28.6388 104.777 45.7587 111.965 64.9999 111.965C84.2415 111.965 101.362 104.777 101.362 99.1117V73.3052L73.2219 86.2587C70.6227 87.4554 67.8564 88.0625 64.9999 88.0625Z" fill="white"/>
</g>
<defs>
<clipPath id="clip0_422_36">
<rect width="130" height="130" fill="white"/>
</clipPath>
</defs>
</svg>
