<svg width="92" height="92" viewBox="0 0 92 92" fill="none" xmlns="http://www.w3.org/2000/svg">
<g clip-path="url(#clip0_20_93)">
<path d="M3.83331 46C3.83331 15.3333 15.3333 3.83331 46 3.83331C76.6666 3.83331 88.1666 15.3333 88.1666 46C88.1666 76.6666 76.6666 88.1666 46 88.1666C15.3333 88.1666 3.83331 76.6666 3.83331 46Z" fill="#00ABE8"/>
<path fill-rule="evenodd" clip-rule="evenodd" d="M65.1667 26.8333L23.9584 44.2366C23.6595 44.3561 23.4033 44.5624 23.2228 44.8289C23.0424 45.0953 22.9459 45.4098 22.9459 45.7316C22.9459 46.0535 23.0424 46.3679 23.2228 46.6344C23.4033 46.9009 23.6595 47.1072 23.9584 47.2266L31.625 49.6416C32.8381 50.0162 34.1204 50.1108 35.3753 49.9183C36.6302 49.7257 37.8251 49.251 38.87 48.53L56.235 36.5316C56.3591 36.4676 56.5013 36.4478 56.6381 36.4755C56.7749 36.5032 56.8982 36.5768 56.9875 36.684C57.0769 36.7912 57.127 36.9258 57.1296 37.0653C57.1322 37.2049 57.087 37.3412 57.0017 37.4516L43.7 50.1783C43.3617 50.5104 43.1008 50.9131 42.9361 51.3576C42.7713 51.8022 42.7068 52.2777 42.7471 52.75C42.7874 53.2224 42.9315 53.6801 43.1691 54.0903C43.4067 54.5006 43.732 54.8533 44.1217 55.1233L58.42 64.7833C58.8669 65.0776 59.3801 65.2559 59.9132 65.3021C60.4463 65.3483 60.9825 65.2609 61.4733 65.0478C61.9641 64.8347 62.3941 64.5027 62.7244 64.0817C63.0547 63.6607 63.2749 63.1641 63.365 62.6366L69 29.9C69.0868 29.4056 69.0391 28.8969 68.8617 28.4273C68.6844 27.9577 68.3839 27.5445 67.992 27.2309C67.6 26.9173 67.1309 26.7149 66.6338 26.645C66.1367 26.575 65.63 26.6401 65.1667 26.8333Z" fill="white"/>
</g>
<defs>
<clipPath id="clip0_20_93">
<rect width="92" height="92" fill="white"/>
</clipPath>
</defs>
</svg>
