<svg width="79" height="79" viewBox="0 0 79 79" fill="none" xmlns="http://www.w3.org/2000/svg">
<g filter="url(#filter0_d_20_434)">
<mask id="mask0_20_434" style="mask-type:alpha" maskUnits="userSpaceOnUse" x="0" y="0" width="59" height="59">
<rect width="59" height="59" rx="29.5" fill="#C4C4C4"/>
</mask>
<g mask="url(#mask0_20_434)">
<rect width="59" height="59" rx="29.5" fill="#3A3A3A"/>
<g filter="url(#filter1_f_20_434)">
<rect x="37.9181" width="21.0819" height="59" rx="10.5409" fill="url(#paint0_linear_20_434)"/>
</g>
<g filter="url(#filter2_f_20_434)">
<rect x="59" y="37.9181" width="21.0819" height="59" rx="10.5409" transform="rotate(90 59 37.9181)" fill="url(#paint1_linear_20_434)"/>
</g>
<g filter="url(#filter3_f_20_434)">
<path d="M51.1333 0H7.86667C3.52203 0 0 3.5395 0 7.90571C0 4.27809 4.40633 0.975704 7.86667 0.975704H51.1333C53.5481 0.975704 59 3.6026 59 7.90571C59 3.53951 55.478 0 51.1333 0Z" fill="#232323"/>
</g>
<g filter="url(#filter4_f_20_434)">
<path d="M59 51.1333L59 7.86667C59 3.52203 55.4605 -1.54717e-07 51.0943 -3.45569e-07C54.7219 -1.87001e-07 58.0243 4.40633 58.0243 7.86667L58.0243 51.1333C58.0243 53.5481 55.3974 59 51.0943 59C55.4605 59 59 55.478 59 51.1333Z" fill="black"/>
</g>
<g filter="url(#filter5_f_20_434)">
<path d="M7.86667 59L51.1333 59C55.478 59 59 55.4605 59 51.0943C59 54.7219 54.5937 58.0243 51.1333 58.0243L7.86667 58.0243C5.4519 58.0243 4.12965e-06 55.3974 4.50584e-06 51.0943C4.12413e-06 55.4605 3.52203 59 7.86667 59Z" fill="black"/>
</g>
<g filter="url(#filter6_f_20_434)">
<path d="M50.2744 0.878418H8.72555C4.5534 0.878418 1.1712 4.41792 1.1712 8.78412C1.1712 5.15651 5.40259 1.85412 8.72555 1.85412H50.2744C52.5933 1.85412 57.8288 4.48102 57.8288 8.78412C57.8288 4.41792 54.4466 0.878418 50.2744 0.878418Z" fill="#828282"/>
</g>
<g opacity="0.7" filter="url(#filter7_f_20_434)">
<path d="M15.6328 14.0695V116.464L123.499 14.0695H15.6328Z" fill="url(#paint2_linear_20_434)"/>
</g>
<g filter="url(#filter8_i_20_434)">
<path d="M43.7265 22.4432C42.74 22.4432 41.7631 22.2489 40.8517 21.8714C39.9402 21.4939 39.1121 20.9405 38.4145 20.243C37.7169 19.5454 37.1636 18.7173 36.7861 17.8058C36.4085 16.8944 36.2142 15.9176 36.2142 14.931H30.8472V35.9473C30.8462 36.9055 30.5436 37.839 29.9824 38.6157C29.4212 39.3923 28.6297 39.9725 27.7203 40.2742C26.8109 40.5759 25.8295 40.5838 24.9154 40.2966C24.0013 40.0094 23.2007 39.4418 22.6272 38.6742C22.0537 37.9066 21.7363 36.978 21.72 36.02C21.7037 35.062 21.9894 34.1231 22.5365 33.3365C23.0836 32.5499 23.8644 31.9554 24.7683 31.6373C25.6721 31.3192 26.6531 31.2937 27.5723 31.5643V26.3472C25.6189 26.0838 23.6316 26.4226 21.8758 27.3184C20.1201 28.2141 18.6794 29.6242 17.7461 31.3604C16.8128 33.0965 16.4314 35.076 16.6528 37.0347C16.8742 38.9933 17.6878 40.8377 18.9851 42.3217C20.2823 43.8057 22.0014 44.8587 23.9129 45.3399C25.8243 45.8212 27.837 45.7079 29.6824 45.0151C31.5277 44.3223 33.1177 43.083 34.2402 41.4628C35.3627 39.8425 35.9641 37.9184 35.9642 35.9473L36.12 25.3242C38.3251 26.943 40.9903 27.8141 43.7258 27.81L43.7265 22.4432Z" fill="url(#paint3_linear_20_434)"/>
<path d="M42.3077 20.9813C40.3154 20.9812 38.4047 20.1897 36.9959 18.7809C35.5872 17.3721 34.7958 15.4613 34.7958 13.469H29.4288V34.4853C29.4278 35.4434 29.1252 36.377 28.564 37.1536C28.0028 37.9303 27.2114 38.5106 26.3019 38.8123C25.3925 39.114 24.4112 39.1218 23.497 38.8346C22.5829 38.5475 21.7823 37.9799 21.2088 37.2123C20.6352 36.4447 20.3178 35.5161 20.3015 34.5581C20.2853 33.6 20.5709 32.6612 21.118 31.8745C21.6651 31.0879 22.4459 30.4934 23.3498 30.1754C24.2536 29.8573 25.2347 29.8318 26.1538 30.1024V24.8852C24.2004 24.6218 22.2132 24.9606 20.4574 25.8563C18.7016 26.7521 17.2609 28.1622 16.3276 29.8983C15.3944 31.6345 15.0129 33.614 15.2343 35.5726C15.4557 37.5312 16.2694 39.3757 17.5666 40.8597C18.8639 42.3437 20.583 43.3966 22.4944 43.8779C24.4058 44.3591 26.4186 44.2458 28.2639 43.553C30.1092 42.8602 31.6993 41.621 32.8218 40.0007C33.9442 38.3805 34.5457 36.4563 34.5458 34.4853L34.7023 23.8622C36.9075 25.481 39.5727 26.352 42.3083 26.348L42.3077 20.9813Z" fill="url(#paint4_linear_20_434)"/>
<path d="M42.3077 22.3089C40.4508 21.9516 38.7969 20.9071 37.6762 19.3839C36.2598 18.2754 35.2882 16.6953 34.9382 14.931H30.8476V35.9473C30.8475 36.9447 30.521 37.9148 29.918 38.7093C29.315 39.5038 28.4686 40.0792 27.5079 40.3476C26.5473 40.616 25.5252 40.5627 24.5977 40.1958C23.6702 39.829 22.8882 39.1687 22.3711 38.3158C21.4515 37.7172 20.778 36.8078 20.4737 35.7537C20.1693 34.6995 20.2544 33.5711 20.7134 32.5745C21.1724 31.5779 21.9746 30.7797 22.9735 30.3258C23.9724 29.8719 25.1013 29.7926 26.1539 30.1024V26.2631C24.3484 26.2864 22.5855 26.8138 21.0639 27.7859C19.5424 28.758 18.3229 30.1361 17.543 31.7645C16.7632 33.393 16.4541 35.207 16.6505 37.0018C16.847 38.7967 17.5413 40.5009 18.655 41.922C20.0689 43.1018 21.7898 43.8541 23.6159 44.0906C25.4421 44.3272 27.2979 44.0383 28.9657 43.2578C30.6335 42.4772 32.0443 41.2374 33.0326 39.6837C34.0209 38.13 34.5458 36.3267 34.5458 34.4852L34.7024 23.8622C36.9075 25.481 39.5727 26.352 42.3083 26.3479L42.3077 22.3089Z" fill="url(#paint5_linear_20_434)"/>
</g>
</g>
</g>
<defs>
<filter id="filter0_d_20_434" x="0" y="0" width="79" height="79" filterUnits="userSpaceOnUse" color-interpolation-filters="sRGB">
<feFlood flood-opacity="0" result="BackgroundImageFix"/>
<feColorMatrix in="SourceAlpha" type="matrix" values="0 0 0 0 0 0 0 0 0 0 0 0 0 0 0 0 0 0 127 0" result="hardAlpha"/>
<feOffset dx="10" dy="10"/>
<feGaussianBlur stdDeviation="5"/>
<feComposite in2="hardAlpha" operator="out"/>
<feColorMatrix type="matrix" values="0 0 0 0 0 0 0 0 0 0 0 0 0 0 0 0 0 0 0.25 0"/>
<feBlend mode="normal" in2="BackgroundImageFix" result="effect1_dropShadow_20_434"/>
<feBlend mode="normal" in="SourceGraphic" in2="effect1_dropShadow_20_434" result="shape"/>
</filter>
<filter id="filter1_f_20_434" x="-71.5112" y="-109.429" width="239.94" height="277.859" filterUnits="userSpaceOnUse" color-interpolation-filters="sRGB">
<feFlood flood-opacity="0" result="BackgroundImageFix"/>
<feBlend mode="normal" in="SourceGraphic" in2="BackgroundImageFix" result="shape"/>
<feGaussianBlur stdDeviation="54.7146" result="effect1_foregroundBlur_20_434"/>
</filter>
<filter id="filter2_f_20_434" x="-54.7146" y="-16.7966" width="168.429" height="130.511" filterUnits="userSpaceOnUse" color-interpolation-filters="sRGB">
<feFlood flood-opacity="0" result="BackgroundImageFix"/>
<feBlend mode="normal" in="SourceGraphic" in2="BackgroundImageFix" result="shape"/>
<feGaussianBlur stdDeviation="27.3573" result="effect1_foregroundBlur_20_434"/>
</filter>
<filter id="filter3_f_20_434" x="-10.9429" y="-10.9429" width="80.8859" height="29.7916" filterUnits="userSpaceOnUse" color-interpolation-filters="sRGB">
<feFlood flood-opacity="0" result="BackgroundImageFix"/>
<feBlend mode="normal" in="SourceGraphic" in2="BackgroundImageFix" result="shape"/>
<feGaussianBlur stdDeviation="5.47146" result="effect1_foregroundBlur_20_434"/>
</filter>
<filter id="filter4_f_20_434" x="40.1514" y="-10.9429" width="29.7916" height="80.8859" filterUnits="userSpaceOnUse" color-interpolation-filters="sRGB">
<feFlood flood-opacity="0" result="BackgroundImageFix"/>
<feBlend mode="normal" in="SourceGraphic" in2="BackgroundImageFix" result="shape"/>
<feGaussianBlur stdDeviation="5.47146" result="effect1_foregroundBlur_20_434"/>
</filter>
<filter id="filter5_f_20_434" x="-10.9429" y="40.1513" width="80.8859" height="29.7916" filterUnits="userSpaceOnUse" color-interpolation-filters="sRGB">
<feFlood flood-opacity="0" result="BackgroundImageFix"/>
<feBlend mode="normal" in="SourceGraphic" in2="BackgroundImageFix" result="shape"/>
<feGaussianBlur stdDeviation="5.47146" result="effect1_foregroundBlur_20_434"/>
</filter>
<filter id="filter6_f_20_434" x="-6.64517" y="-6.93796" width="72.2903" height="23.5385" filterUnits="userSpaceOnUse" color-interpolation-filters="sRGB">
<feFlood flood-opacity="0" result="BackgroundImageFix"/>
<feBlend mode="normal" in="SourceGraphic" in2="BackgroundImageFix" result="shape"/>
<feGaussianBlur stdDeviation="3.90819" result="effect1_foregroundBlur_20_434"/>
</filter>
<filter id="filter7_f_20_434" x="-22.3672" y="-23.9305" width="183.866" height="178.395" filterUnits="userSpaceOnUse" color-interpolation-filters="sRGB">
<feFlood flood-opacity="0" result="BackgroundImageFix"/>
<feBlend mode="normal" in="SourceGraphic" in2="BackgroundImageFix" result="shape"/>
<feGaussianBlur stdDeviation="19" result="effect1_foregroundBlur_20_434"/>
</filter>
<filter id="filter8_i_20_434" x="15.173" y="13.469" width="29.9077" height="36.2268" filterUnits="userSpaceOnUse" color-interpolation-filters="sRGB">
<feFlood flood-opacity="0" result="BackgroundImageFix"/>
<feBlend mode="normal" in="SourceGraphic" in2="BackgroundImageFix" result="shape"/>
<feColorMatrix in="SourceAlpha" type="matrix" values="0 0 0 0 0 0 0 0 0 0 0 0 0 0 0 0 0 0 127 0" result="hardAlpha"/>
<feOffset dx="1.35426" dy="4.06277"/>
<feGaussianBlur stdDeviation="2.03138"/>
<feComposite in2="hardAlpha" operator="arithmetic" k2="-1" k3="1"/>
<feColorMatrix type="matrix" values="0 0 0 0 0 0 0 0 0 0 0 0 0 0 0 0 0 0 0.25 0"/>
<feBlend mode="normal" in2="shape" result="effect1_innerShadow_20_434"/>
</filter>
<linearGradient id="paint0_linear_20_434" x1="59" y1="27.2308" x2="37.9181" y2="27.3772" gradientUnits="userSpaceOnUse">
<stop stop-color="#2D2D2D"/>
<stop offset="1" stop-color="#2B2B2B" stop-opacity="0"/>
</linearGradient>
<linearGradient id="paint1_linear_20_434" x1="80.0819" y1="65.1489" x2="59" y2="65.2953" gradientUnits="userSpaceOnUse">
<stop stop-color="#292929"/>
<stop offset="1" stop-color="#222222" stop-opacity="0"/>
</linearGradient>
<linearGradient id="paint2_linear_20_434" x1="19.0212" y1="14.0694" x2="69.3836" y2="73.1012" gradientUnits="userSpaceOnUse">
<stop stop-color="white"/>
<stop offset="1" stop-color="white" stop-opacity="0"/>
</linearGradient>
<linearGradient id="paint3_linear_20_434" x1="18.7425" y1="42.1087" x2="41.0672" y2="19.7839" gradientUnits="userSpaceOnUse">
<stop stop-color="#B5053C"/>
<stop offset="0.233" stop-color="#C90441"/>
<stop offset="0.737" stop-color="#F0014B"/>
<stop offset="1" stop-color="#FF004F"/>
</linearGradient>
<linearGradient id="paint4_linear_20_434" x1="16.9914" y1="40.9789" x2="40.5076" y2="17.4628" gradientUnits="userSpaceOnUse">
<stop stop-color="#00B2C9"/>
<stop offset="0.283" stop-color="#00C8D4"/>
<stop offset="0.741" stop-color="#00E6E4"/>
<stop offset="1" stop-color="#00F1EA"/>
</linearGradient>
<linearGradient id="paint5_linear_20_434" x1="3.81649" y1="55.5943" x2="55.8698" y2="3.54104" gradientUnits="userSpaceOnUse">
<stop stop-color="#DDE3E4"/>
<stop offset="1" stop-color="#FCF7F7"/>
</linearGradient>
</defs>
</svg>
