<svg width="78" height="78" viewBox="0 0 78 78" fill="none" xmlns="http://www.w3.org/2000/svg">
<path d="M17.9166 39C17.9166 23.6666 23.6666 17.9166 39 17.9166C54.3333 17.9166 60.0833 23.6666 60.0833 39C60.0833 54.3333 54.3333 60.0833 39 60.0833C23.6666 60.0833 17.9166 54.3333 17.9166 39Z" fill="#00A3F8"/>
<path d="M52.11 30.95C51.1257 31.3735 50.0871 31.6574 49.0242 31.7933C50.1372 31.1224 50.9734 30.0754 51.3817 28.8417C50.3224 29.4578 49.1702 29.8979 47.97 30.145C47.4882 29.6191 46.9071 29.1937 46.2602 28.8934C45.6132 28.5931 44.9132 28.4238 44.2005 28.3953C43.4879 28.3668 42.7766 28.4796 42.1077 28.7273C41.4388 28.975 40.8256 29.3526 40.3033 29.8383C39.5983 30.4747 39.0782 31.2897 38.7982 32.1973C38.5181 33.1048 38.4885 34.0712 38.7125 34.9942C36.5925 34.8769 34.5199 34.3206 32.6261 33.3605C30.7323 32.4004 29.0585 31.0574 27.7108 29.4167C27.0239 30.5965 26.8179 31.9956 27.1355 33.3234C27.4532 34.6511 28.2701 35.8055 29.4167 36.5467C28.5622 36.5283 27.7258 36.2977 26.9825 35.8758C26.9748 37.1251 27.4063 38.3373 28.2015 39.3007C28.9968 40.2641 30.1053 40.9175 31.3333 41.1467C30.8666 41.2849 30.3826 41.3559 29.8958 41.3575C29.5642 41.3863 29.2308 41.3863 28.8992 41.3575C29.2498 42.4168 29.9218 43.3405 30.8219 44.0001C31.7219 44.6597 32.8051 45.0223 33.9208 45.0375C32.0169 46.5142 29.6795 47.3225 27.27 47.3375C26.8483 47.3375 26.4075 47.3375 25.9667 47.3375C28.4298 48.9044 31.2891 49.7356 34.2083 49.7333C38.2177 49.7845 42.0837 48.2434 44.9582 45.4479C47.8327 42.6524 49.4811 38.8309 49.5417 34.8217V33.8633C50.5655 33.054 51.4354 32.0672 52.11 30.95Z" fill="white"/>
</svg>
