<svg width="93" height="93" viewBox="0 0 93 93" fill="none" xmlns="http://www.w3.org/2000/svg">
<g clip-path="url(#clip0_20_106)">
<path d="M3.875 46.5C3.875 15.5 15.5 3.875 46.5 3.875C77.5 3.875 89.125 15.5 89.125 46.5C89.125 77.5 77.5 89.125 46.5 89.125C15.5 89.125 3.875 77.5 3.875 46.5Z" fill="#00CD4C"/>
<path d="M23.0175 70.37L24.8775 64.8287C25.4975 63.0462 26.0013 61.225 26.6988 59.4812C26.8892 59.1095 26.9885 58.6977 26.9885 58.28C26.9885 57.8623 26.8892 57.4505 26.6988 57.0787C24.4956 53.0113 23.5965 48.3648 24.1233 43.7691C24.6501 39.1734 26.5773 34.8509 29.6438 31.3875C31.87 28.8498 34.6482 26.8562 37.7651 25.5597C40.882 24.2632 44.2546 23.6985 47.6238 23.9087C52.7304 24.0773 57.6145 26.0391 61.4188 29.45C65.0163 32.5812 67.5265 36.7739 68.5875 41.4237C69.4736 45.1839 69.3667 49.1098 68.2775 52.8162C66.9459 57.4738 64.1123 61.5607 60.2175 64.4412C57.6389 66.4495 54.6481 67.8627 51.4592 68.5795C48.2704 69.2963 44.9625 69.2991 41.7725 68.5875C39.7544 68.1816 37.8083 67.4763 35.9988 66.495C35.8594 66.4294 35.7072 66.3954 35.5531 66.3954C35.3991 66.3954 35.2469 66.4294 35.1075 66.495L24.7225 69.75L23.0175 70.37ZM28.9075 64.5187H29.2563L35.7663 62.465C35.9924 62.3882 36.2376 62.3882 36.4638 62.465C37.3938 62.93 38.285 63.5112 39.2538 63.8987C43.1145 65.5944 47.4476 65.8824 51.4988 64.7125C53.8816 64.076 56.1133 62.9701 58.0629 61.4596C60.0126 59.9491 61.641 58.0645 62.8525 55.9162C65.2569 51.731 65.9662 46.7837 64.8346 42.0915C63.703 37.3994 60.8165 33.3192 56.7688 30.69C53.1039 28.3124 48.7264 27.2828 44.3859 27.7777C40.0454 28.2725 36.012 30.261 32.9763 33.4025C30.4914 35.94 28.7954 39.1434 28.0938 42.625C27.5423 45.0119 27.4811 47.4859 27.9141 49.8971C28.347 52.3084 29.2651 54.6066 30.6125 56.6525C30.8313 57.015 30.9469 57.4304 30.9469 57.8537C30.9469 58.2771 30.8313 58.6925 30.6125 59.055C30.1088 60.76 29.5663 62.62 28.9075 64.5187Z" fill="white"/>
<path d="M58.125 53.0487C58.1014 53.8736 57.8452 54.6751 57.3858 55.3607C56.9265 56.0463 56.2827 56.5881 55.5288 56.9237C54.7462 57.3514 53.88 57.6041 52.9902 57.6643C52.1004 57.7245 51.2081 57.5908 50.375 57.2725C48.7796 56.6938 47.2146 56.0342 45.6863 55.2962C43.7119 54.2503 41.9507 52.844 40.4938 51.15C38.8408 49.3319 37.4219 47.3142 36.27 45.1437C35.4061 43.6395 35.0019 41.9151 35.1075 40.1837C35.1872 39.2897 35.4565 38.4229 35.8975 37.6411C36.3385 36.8594 36.9411 36.1806 37.665 35.65C37.9989 35.424 38.3866 35.2903 38.7888 35.2625C39.2788 35.2229 39.7712 35.2229 40.2613 35.2625C40.4405 35.2852 40.6092 35.3595 40.7468 35.4765C40.8844 35.5935 40.985 35.748 41.0363 35.9212C41.4238 36.8125 41.7338 37.7037 42.0825 38.6337C42.4313 39.5637 42.5088 39.8737 42.78 40.455C43.0185 40.7752 43.134 41.1705 43.1056 41.5688C43.0771 41.967 42.9066 42.3418 42.625 42.625C42.252 43.1123 41.8371 43.5661 41.385 43.9812C41.2197 44.1115 41.1084 44.2985 41.0726 44.5059C41.0368 44.7134 41.0791 44.9268 41.1913 45.105C42.2404 47.0103 43.633 48.7051 45.2988 50.1037C46.4929 50.9993 47.7947 51.7414 49.1738 52.3125C49.3166 52.4432 49.5033 52.5157 49.6969 52.5157C49.8905 52.5157 50.0772 52.4432 50.22 52.3125L52.1575 50.1037C52.5838 49.6387 52.7775 49.5225 53.32 49.7937L58.0863 52.2737C58.1507 52.3916 58.1877 52.5226 58.1944 52.6568C58.2011 52.791 58.1774 52.925 58.125 53.0487Z" fill="white"/>
</g>
<defs>
<clipPath id="clip0_20_106">
<rect width="93" height="93" fill="white"/>
</clipPath>
</defs>
</svg>
